<svg height="512pt" viewBox="0 -1 512 512" width="512pt" xmlns="http://www.w3.org/2000/svg"><path d="m397 510.984375-115-69v-144.984375l115-69 115 69v144.984375zm0 0" fill="#ffe2ba"/><path d="m397 510.984375-115-69v-144.984375l115 69 115-69v144.984375zm0 0" fill="#ffb742"/><path d="m115 282.984375-115-69v-144.984375l115-69 115 69v144.984375zm0 0" fill="#ccf0ff"/><path d="m115 0v282.984375l115-69v-144.984375zm0 0" fill="#80c9ff"/><path d="m115 282.984375-115-69v-144.984375l115 69 115-69v144.984375zm0 0" fill="#80c9ff"/><g fill="#fe3b7f"><path d="m412 183.492188c0 8.285156-6.714844 15-15 15s-15-6.714844-15-15c0-8.285157 6.714844-15 15-15s15 6.714843 15 15zm0 0"/><path d="m412 123.492188c0 8.285156-6.714844 15-15 15s-15-6.714844-15-15c0-8.285157 6.714844-15 15-15s15 6.714843 15 15zm0 0"/><path d="m352 123.492188c0 8.285156-6.714844 15-15 15s-15-6.714844-15-15c0-8.285157 6.714844-15 15-15s15 6.714843 15 15zm0 0"/><path d="m292 123.492188c0 8.285156-6.714844 15-15 15s-15-6.714844-15-15c0-8.285157 6.714844-15 15-15s15 6.714843 15 15zm0 0"/></g><path d="m130 327.492188c0 8.285156-6.714844 15-15 15s-15-6.714844-15-15c0-8.285157 6.714844-15 15-15s15 6.714843 15 15zm0 0" fill="#ff6e84"/><path d="m130 387.492188c0 8.285156-6.714844 15-15 15s-15-6.714844-15-15c0-8.285157 6.714844-15 15-15s15 6.714843 15 15zm0 0" fill="#ff6e84"/><path d="m190 387.492188c0 8.285156-6.714844 15-15 15s-15-6.714844-15-15c0-8.285157 6.714844-15 15-15s15 6.714843 15 15zm0 0" fill="#ff6e84"/><path d="m250 387.492188c0 8.285156-6.714844 15-15 15s-15-6.714844-15-15c0-8.285157 6.714844-15 15-15s15 6.714843 15 15zm0 0" fill="#ff6e84"/><path d="m115 138v144.984375l115-69v-144.984375zm0 0" fill="#266cb2"/><path d="m397 228v282.984375l115-69v-144.984375zm0 0" fill="#ffc474"/><path d="m397 366v144.984375l115-69v-144.984375zm0 0" fill="#fe8100"/></svg>